# xmcd
#
# Track frame offsets:
#	150
#	25846
#	41351
#	65506
#	87434
#	110942
#	134469
#	158128
#	175618
#	199009
#
# Disc length: 2891 seconds
# Revision: 0
# Processed by: cddbd v1.5.2PL0 Copyright (c) Steve Scherf et al.
# Submitted via: dBpowerAMP V12.0
#
DISCID=840b490a
DTITLE=Various Artist - Mot doi tim nhau
DYEAR=2019
DGENRE=Country
TTITLE0=Nhu Quynh - Hoa tim nguoi xua
TTITLE1=Nhu Quynh - Mot minh thoi
TTITLE2=Nhu Quynh and Thai Chau - Chuyen buon tinh yeu
TTITLE3=Nhu Quynh - Bao gio ta gap lai ta
TTITLE4=Nhu Quynh - Tinh yeu tra lai trang sao
TTITLE5=Nhu Quynh - Mot doi tim nhau
TTITLE6=Nhu Quynh - Giot sau chua voi
TTITLE7=Nhu Quynh and Thai Chau - Nhung ngay yeu nhau
TTITLE8=Nhu Quynh - Yeu la chet o trong long
TTITLE9=Nhu Quynh - Cho mot ngay
EXTD=
EXTT0=
EXTT1=
EXTT2=
EXTT3=
EXTT4=
EXTT5=
EXTT6=
EXTT7=
EXTT8=
EXTT9=
PLAYORDER=
